inDegrees=yes
name=ik_S55_A02_T01
DataType=double
version=3
OpenSimVersion=4.3-2021-08-27-4bc7ad9
endheader
time	pelvis_tilt	pelvis_list	pelvis_rotation	pelvis_tx	pelvis_ty	pelvis_tz	hip_flexion_r	hip_adduction_r	hip_rotation_r	knee_angle_r	knee_angle_r_beta	ankle_angle_r	subtalar_angle_r	mtp_angle_r	hip_flexion_l	hip_adduction_l	hip_rotation_l	knee_angle_l	knee_angle_l_beta	ankle_angle_l	subtalar_angle_l	mtp_angle_l	lumbar_extension	lumbar_bending	lumbar_rotation	arm_flex_r	arm_add_r	arm_rot_r	elbow_flex_r	pro_sup_r	wrist_flex_r	wrist_dev_r	arm_flex_l	arm_add_l	arm_rot_l	elbow_flex_l	pro_sup_l	wrist_flex_l	wrist_dev_l
0	0	0	0	0	0.9399999999999999	0	0	0	0	0	0	0	0	0	0	0	0	0	0	0	0	0	0	0	0	0	0	0	0	89.99999999963507	0	0	0	0	0	0	89.99999999869995	0	0
0.02	-0.3273596932051875	1.318323918504757	86.30827281757078	0	0.9399999999999999	0	7.057028246670497	-6.151766534780587	0.6940383947826289	5.841451916192003	0.1019525690344823	0	0	0	2.605697573150715	2.202456483560251	3.323757601932875	1.131048345380691	0.01974051762612705	0	0	0	0	0	0	1.736634737115563	-1.736634737115563	0.3088559420875566	8.545630000988279	89.6911440756901	0	0	1.736634737115563	-1.736634737115563	0.3088559420875566	8.545630000988279	89.69114407481285	0	0
0.04	-0.2848727055259377	1.423563465170309	86.13707574405385	0	0.9399999999999999	0	6.64263871044682	-6.206446359352717	0.9540670834881874	5.090973557723087	0.08885425071423746	0	0	0	2.536404463626692	2.253061131205293	3.230967976759521	1.270410506685981	0.02217284619359981	0	0	0	0	0	0	1.747513576386214	-1.747513576386214	0.310988206850367	8.641908814859333	89.68901181105494	0	0	1.747513576386214	-1.747513576386214	0.310988206850367	8.641908814859333	89.6890118101781	0	0
0.06	-0.2763472576560648	1.531033128180367	85.96626838422424	0	0.9399999999999999	0	6.438279561344006	-6.270308771120733	1.126523321542467	5.033338832311736	0.08784833499232654	0	0	0	2.407959736994231	2.278787653336482	3.081288292487062	1.263319865445118	0.02204909115786905	0	0	0	0	0	0	1.75145359963084	-1.75145359963084	0.3117579788035886	8.676098459782764	89.6882420391478	0	0	1.75145359963084	-1.75145359963084	0.3117579788035886	8.676098459782764	89.68824203827111	0	0
0.08	-0.2916588296402066	1.582834566710404	85.78792360923855	0	0.9399999999999999	0	6.25798368646804	-6.365568033168551	1.377628494630587	4.5502880389339	0.07941750819351248	0	0	0	2.332288323472202	2.352472903509601	2.977282627263899	1.260666674996496	0.02200278424885813	0	0	0	0	0	0	1.761652195013953	-1.761652195013953	0.3137581151394814	8.766032294708644	89.68624190293167	0	0	1.761652195013953	-1.761652195013953	0.3137581151394814	8.766032294708644	89.68624190205543	0	0
0.1	-0.3112180120889102	1.582129571719255	85.60258863284272	0	0.9399999999999999	0	6.169805997099596	-6.40189055639511	1.505100452900237	4.358667525015977	0.0760730993112811	0	0	0	2.281235464029941	2.391678733866276	2.842407914099666	1.20435457348199	0.02101995266871271	0	0	0	0	0	0	1.767792977865525	-1.767792977865525	0.3149630687898783	8.820078624156066	89.68503694935346	0	0	1.767792977865525	-1.767792977865525	0.3149630687898783	8.820078624156066	89.68503694847745	0	0
0.12	-0.3350939790459368	1.547772664620181	85.52566291104053	0	0.9399999999999999	0	6.134885223125933	-6.442981004478376	1.301601374818546	4.291251525026626	0.07489646814294246	0	0	0	2.211574192634248	2.403694626857624	2.595070889375947	1.167779217367189	0.02038159227942	0	0	0	0	0	0	1.769356360021366	-1.769356360021366	0.3152649776601928	8.832780899320735	89.68473504050117	0	0	1.769356360021366	-1.769356360021366	0.3152649776601928	8.832780899320735	89.68473503962518	0	0
0.14	-0.3721020886008902	1.555980374245792	85.50803202378344	0	0.9399999999999999	0	5.973747040964817	-6.492458486026461	1.05744495156143	3.970832587175492	0.06930410269169709	0	0	0	2.12513211328766	2.421340966129404	2.526056314315397	1.042412055895299	0.01819352253785614	0	0	0	0	0	0	1.778875145762717	-1.778875145762717	0.3171356396376799	8.916916827434235	89.68286437863568	0	0	1.778875145762717	-1.778875145762717	0.3171356396376799	8.916916827434235	89.68286437776007	0	0
0.16	-0.4007293544354387	1.53192492804697	85.4673958277567	0	0.9399999999999999	0	5.909282913837495	-6.51807887560516	0.9201869335859478	3.948121638933729	0.06890772186862833	0	0	0	2.12811190432172	2.420961136098475	2.386339492610757	1.036520959977014	0.01809070351753127	0	0	0	0	0	0	1.780151026142427	-1.780151026142427	0.3173817363955016	8.927171595067072	89.68261828189259	0	0	1.780151026142427	-1.780151026142427	0.3173817363955016	8.927171595067072	89.68261828101699	0	0
0.18	-0.4373175896207842	1.556109386573169	85.43545704952527	0	0.9399999999999999	0	5.790873799518566	-6.561485451491131	0.9476672968662935	3.830428413646009	0.06685358758006615	0	0	0	2.09830596829186	2.4147716219627	2.184340706680036	1.084108440910022	0.01892126174254228	0	0	0	0	0	0	1.786014744317565	-1.786014744317565	0.3185332317287645	8.978619115797605	89.68146678662822	0	0	1.786014744317565	-1.786014744317565	0.3185332317287645	8.978619115797605	89.68146678575289	0	0
0.2	-0.5031690083489917	1.576772242194486	85.40086878473313	0	0.9399999999999999	0	5.728848250593242	-6.640477593221356	1.042362419919635	3.822685239880195	0.06671844370329864	0	0	0	2.051829162713525	2.466207135121329	2.017036008597413	1.093225479131448	0.01908038407753633	0	0	0	0	0	0	1.789754578500167	-1.789754578500167	0.3192678950891311	9.011372645798204	89.68073212331184	0	0	1.789754578500167	-1.789754578500167	0.3192678950891311	9.011372645798204	89.68073212243664	0	0
0.22	-0.5585680770555739	1.635956138650233	85.34501577265465	0	0.9399999999999999	0	5.637360860743021	-6.711900164531389	1.114823074990947	3.844499083409743	0.06709916709540412	0	0	0	1.94465229074918	2.487345197545393	1.800552968854542	1.067161781822152	0.01862548674424593	0	0	0	0	0	0	1.792875027788538	-1.792875027788538	0.3198796170807576	9.038405726925411	89.68012040135683	0	0	1.792875027788538	-1.792875027788538	0.3198796170807576	9.038405726925411	89.68012040048177	0	0
0.24	-0.6087571097321403	1.709728011696186	85.27296650096122	0	0.9399999999999999	0	5.563348499193519	-6.771694717297684	1.142667243638535	3.859709060012965	0.06736463126628164	0	0	0	1.777808705071977	2.472049127548592	1.527125066701634	0.992576267929277	0.01732372395252328	0	0	0	0	0	0	1.795546823504269	-1.795546823504269	0.3203988443613949	9.060589209536344	89.6796011741072	0	0	1.795546823504269	-1.795546823504269	0.3203988443613949	9.060589209536344	89.67960117323223	0	0
0.26	-0.8318250126501809	1.945397616859616	85.01567041108044	0	0.9399999999999999	0	5.346390227628746	-7.021533954718391	1.31382827407228	3.886753687805248	0.06783664906623335	0	0	0	1.558590246722281	2.691343442701955	1.220526116704848	0.9066626899125293	0.01582424914396201	0	0	0	0	0	0	1.798808551811098	-1.798808551811098	0.3210340481430102	9.087867268328434	89.67896597036356	0	0	1.798808551811098	-1.798808551811098	0.3210340481430102	9.087867268328434	89.67896596948867	0	0
0.28	-0.8473948278869577	1.959586324221294	85.00999244330168	0	0.9399999999999999	0	5.314504421183988	-7.029345248287981	1.334319111103452	3.96963498563037	0.06928320060160775	0	0	0	1.404949853471507	2.67820409213664	1.065335970216448	0.7267260537120528	0.01268376239730048	0	0	0	0	0	0	1.804990250443835	-1.804990250443835	0.3222483322356733	9.141737362582107	89.67775168634363	0	0	1.804990250443835	-1.804990250443835	0.3222483322356733	9.141737362582107	89.67775168546896	0	0
